# xmcd
#
# Track frame offsets:
#	150
#	16847
#	33709
#	50571
#	67433
#	84051
#	100669
#	117287
#	133905
#	146522
#	159243
#	171964
#	184685
#	199192
#	213824
#	228456
#	243088
#	258237
#	273529
#	288821
#
# Disc length: 4052 seconds
# Revision: 1
# Processed by: cddbd v1.5.2PL0 Copyright (c) Steve Scherf et al.
# Submitted via: dBpowerAMP V12.0
#
DISCID=1a0fd214
DTITLE=db loops - Play-Along Blues Vol. 2
DYEAR=2011
DGENRE=Blues
TTITLE0=Track 01 Slowblues im Stil von Albert Collins - Complete
TTITLE1=Track 02 Slowblues im Stil von Albert Collins - ohne Sologitarre
TTITLE2=Track 03 Slowblues im Stil von Albert Collins - ohne Gitarren
TTITLE3=Track 04 Slowblues im Stil von Albert Collins - ohne Bass
TTITLE4=Track 05 Missisippi-Delta Blues im Stil von Elmore James und Robert Johnson - Complete
TTITLE5=Track 06 Missisippi-Delta Blues im Stil von Elmore James und Robert Johnson - ohne Sologitarre
TTITLE6=Track 07 Missisippi-Delta Blues im Stil von Elmore James und Robert Johnson - ohne Gitarren
TTITLE7=Track 08 Missisippi-Delta Blues im Stil von Elmore James und Robert Johnson - ohne Bass
TTITLE8=Track 09 Beatrock im 60iger Stil mit Lapsteel Hawaibegleitung - Complete
TTITLE9=Track 10 Beatrock im 60iger Stil mit Lapsteel Hawaibegleitung - ohne Sologitarre
TTITLE10=Track 11 Beatrock im 60iger Stil mit Lapsteel Hawaibegleitung - ohne Gitarren
TTITLE11=Track 12 Beatrock im 60iger Stil mit Lapsteel Hawaibegleitung - ohne Bass
TTITLE12=Track 13 Slowblues á la Jonny Lang - Complete
TTITLE13=Track 14 Slowblues á la Jonny Lang - ohne Sologitarre
TTITLE14=Track 15 Slowblues á la Jonny Lang - ohne Gitarren
TTITLE15=Track 16 Slowblues á la Jonny Lang - ohne Bass
TTITLE16=Track 17 Folk-Bluesrock in Dur - Complete
TTITLE17=Track 18 Folk-Bluesrock in Dur - ohne Sologitarre
TTITLE18=Track 19 Folk-Bluesrock in Dur - ohne Gitarren
TTITLE19=Track 20 Folk-Bluesrock in Dur - ohne Bass
EXTD=
EXTT0=
EXTT1=
EXTT2=
EXTT3=
EXTT4=
EXTT5=
EXTT6=
EXTT7=
EXTT8=
EXTT9=
EXTT10=
EXTT11=
EXTT12=
EXTT13=
EXTT14=
EXTT15=
EXTT16=
EXTT17=
EXTT18=
EXTT19=
PLAYORDER=
